<svg width="501" height="516" viewBox="0 0 501 516" fill="none" xmlns="http://www.w3.org/2000/svg">
<path fill-rule="evenodd" clip-rule="evenodd" d="M341.875 244.276L342.336 236.264C342.136 219.973 342.764 211.887 344.666 196.447C353.236 216.221 358.463 237.227 360.428 259.419C362.276 266.729 360.279 307.731 360.844 308.251L348.572 311.376L349.022 286.047L348.563 284.827C347.722 270.212 345.436 256.724 341.875 244.276ZM177.067 50.6053V75.0293C180.774 73.568 184.49 72.1547 188.224 70.776V106.233L225.748 119.357C203.042 164.188 192.486 214.708 194.11 270.887L244.01 252.629C238.634 208.313 238.634 166.932 254.358 133.965C275.7 146.335 294.25 160.963 308.98 178.645C311.739 168.62 315.188 158.66 319.527 148.792C306.714 131.115 290.699 114.597 271.391 99.284C301.914 42.5987 356.271 22.2707 419.263 15.9187V4.35333C344.264 12.284 288.788 40.6387 249.488 85.888C228.18 71.3133 203.264 60.3147 177.067 50.6053" fill="#3C75B4"/>
<path fill-rule="evenodd" clip-rule="evenodd" d="M186.247 73.347V115.23C172.941 117.627 159.635 121.212 146.331 126.558C164.693 158.875 170.047 199.867 169.48 244.81L131.553 228.062C135.92 194.132 134.664 163.272 125.149 136.907C74.5533 167.454 39.452 211.272 59.6133 302.472H51.7333C30.6827 211.486 58.1533 152.048 112.823 110.3C83.2933 63.7243 43.1907 50.1683 0 45.759L0.302673 37.4857C44.144 39.9563 87.508 54.071 129.577 100.452C147.741 88.5176 166.883 80.531 186.247 73.347Z" fill="#DD1E3B"/>
<path fill-rule="evenodd" clip-rule="evenodd" d="M134.37 88.3698C148.675 88.3698 160.36 76.7018 160.36 62.3911C160.36 48.0911 148.675 36.4164 134.37 36.4164C120.072 36.4164 108.408 48.0911 108.408 62.3911C108.408 76.7018 120.072 88.3698 134.37 88.3698Z" fill="#F7E700"/>
<path fill-rule="evenodd" clip-rule="evenodd" d="M243.402 69.2733C262.468 69.2733 278.032 53.712 278.032 34.6253C278.032 15.5507 262.468 -1.6216e-05 243.402 -1.6216e-05C224.33 -1.6216e-05 208.77 15.5507 208.77 34.6253C208.77 53.712 224.33 69.2733 243.402 69.2733Z" fill="#DD1E3B"/>
<path fill-rule="evenodd" clip-rule="evenodd" d="M295.451 73.2494V115.779L331.656 129.137C309.038 167.703 303.03 208.097 299.364 248.765L341.093 236.183C340.717 203.388 343.594 171.897 353.7 143.293C401.576 164.288 437.254 224.62 411.137 317.243H421.38C448.569 229.412 423.31 165.804 368.642 115.757C395.413 75.22 437.136 57.1214 489.076 54.3654V47.2374C433.753 48.064 386.717 63.2307 354.478 103.955L295.451 73.2494Z" fill="#F7E700"/>
<path fill-rule="evenodd" clip-rule="evenodd" d="M348.517 90.5222C363.046 90.5222 374.9 78.6702 374.9 64.1488C374.9 49.6235 363.046 37.7662 348.517 37.7662C333.986 37.7662 322.148 49.6235 322.148 64.1488C322.148 78.6702 333.986 90.5222 348.517 90.5222Z" fill="#F7E700"/>
<path fill-rule="evenodd" clip-rule="evenodd" d="M228.024 393.679C181.631 393.679 239.964 333.246 239.964 384.718C237.729 385.315 230.352 393.679 228.024 393.679ZM246.675 364.547C246.675 353.93 223.465 351.836 216.091 351.836C196.196 353.159 194.232 381.534 195.948 384.718C198.801 410.491 230.951 401.16 239.964 395.179C240.82 423.843 225.557 439.992 198.177 439.992L198.16 442.148L196.485 442.19C247.417 469.194 250.647 375.088 246.675 364.547" fill="white"/>
<path fill-rule="evenodd" clip-rule="evenodd" d="M360.844 344.365V399.657C360.844 402.241 361.408 402.545 361.593 404.883H365.325C363.902 390.227 368.496 326.867 381.997 354.965C387.729 366.919 389.946 379.839 389.946 392.933L392.18 395.175H395.176C396.849 395.175 396.801 394.585 397.74 393.651C398.901 379.179 398.702 365.74 412.249 361.896C423.466 358.729 421.502 362.58 425.057 370.987C429.76 382.053 438.402 395.227 442.18 404.883C444.401 404.708 445.912 404.352 445.912 401.903L444.42 398.904C444.42 389.235 427.677 348.865 422.786 348.865C412.262 348.865 403.832 357.201 395.482 356.135C393.616 330.292 371.397 344.365 360.844 344.365Z" fill="white"/>
<path fill-rule="evenodd" clip-rule="evenodd" d="M469.417 358.566C471.81 342.636 492.55 348.702 492.55 363.051C481.929 363.051 479.205 358.566 469.417 358.566ZM481.359 406.388C484.955 406.388 481.553 404.538 485.834 403.403V395.926C455.922 395.926 461.21 381.443 461.21 363.794C469.239 365.95 485.961 374.996 493.293 374.996H497.025C499.321 374.996 500.01 372.82 500.01 370.519V357.068C480.422 299.518 403.734 403.906 481.359 406.388Z" fill="white"/>
<path fill-rule="evenodd" clip-rule="evenodd" d="M34.3984 353.337L27.4544 353.311C27.8997 357.781 27.7077 362.078 29.7011 366.043C30.0077 376.546 24.8371 412.221 40.3611 406.382V393.679C40.3611 386.821 38.1211 373.91 38.1211 364.547C38.1211 358.905 60.1664 357.069 62.7491 357.069C66.3851 370.725 65.2064 387.446 65.7437 401.903H67.9811C71.1344 401.903 68.3651 400.867 71.7064 399.657V355.573C71.7064 354.411 63.1464 344.365 59.7731 344.365L43.7571 344.677C41.1677 346.891 35.2571 350.121 34.3984 353.337Z" fill="white"/>
<path fill-rule="evenodd" clip-rule="evenodd" d="M103.039 344.365V343.619C103.959 334.949 106.772 324.4 106.772 315.98V311.508C106.772 309.785 106.262 309.256 104.54 309.256H100.056C97.9284 309.256 96.8897 312.755 95.5831 314.481V342.876C95.5831 344.611 95.0644 345.119 93.3457 345.119C84.6591 345.119 79.5151 341.388 71.7057 341.388V345.119L91.0991 349.601C97.8164 368.181 88.2057 386.353 93.3457 405.628H97.0537C101.494 389.48 101.544 370.079 101.544 353.351C115.292 353.351 128.166 358.057 142.263 357.432L144.638 355.639L143.335 349.601C132.055 349.601 112.636 350.484 103.039 344.365Z" fill="white"/>
<path fill-rule="evenodd" clip-rule="evenodd" d="M160.491 357.822C162.219 353.644 164.752 348.094 174.668 349.59C178.931 349.59 182.884 353.564 182.884 357.822V362.297C174.664 362.297 169.415 357.822 160.491 357.822ZM173.184 401.157V398.91H175.417C175.36 396.525 175.659 395.176 173.184 395.176C166.636 395.176 160.74 397.666 153.695 392.273C140.671 382.329 144.331 357.328 164.824 363.11C166.395 366.954 180.201 369.776 184.379 369.776H189.6V362.297C189.6 352.422 182.141 345.12 172.421 345.12C136.499 342.182 123.515 406.46 173.184 401.157" fill="white"/>
<path fill-rule="evenodd" clip-rule="evenodd" d="M8.28053 297.305V323.459C8.28053 327.905 10.0912 328.608 10.4979 331.704C10.8512 334.393 10.5219 339.893 10.5219 342.888V364.548C10.5219 371.436 9.79387 379.316 10.9685 385.757C11.7312 389.964 10.6512 392.249 12.0085 395.925C12.6685 397.697 13.4472 403.32 13.5032 405.636H17.2285V402.651C17.2285 400.823 19.4699 399.829 19.4699 395.175V351.84C19.4699 341.693 17.2285 334.499 17.2285 321.959C17.2285 307.853 15.1605 303.068 14.2525 292.073H9.02053C8.8352 294.421 8.28053 294.724 8.28053 297.305Z" fill="white"/>
<path fill-rule="evenodd" clip-rule="evenodd" d="M305.924 359.239C288.307 397.655 313.632 402.615 344.052 383.5C344.052 389.755 340.651 401.24 349.304 401.43C349.175 392.775 353.316 344.642 342.559 344.642C330.462 343.068 319.248 343.835 311.23 352.87C311.23 352.87 309.374 353.574 308.838 354.223C308.046 355.164 305.924 359.239 305.924 359.239ZM342.276 353.878L344.052 355.852C351.82 369.507 314.682 397.83 308.987 376.776C311.372 357.683 324.403 352.595 342.276 353.878Z" fill="white"/>
<path d="M18.5111 444.423C19.1111 446.571 19.5604 449.305 19.8724 452.625C20.1711 455.96 20.4431 459.588 20.6737 463.515C20.9111 467.453 21.1844 471.504 21.4831 475.661C21.7804 479.825 22.2391 483.808 22.8364 487.608C23.4471 491.397 24.2297 494.831 25.2071 497.891C26.1897 500.952 27.4577 503.335 29.0404 505.044C30.6244 506.76 32.5724 507.631 34.8831 507.667C37.2097 507.695 40.0057 506.579 43.3031 504.287C46.5231 502.399 49.0671 499.976 50.9057 496.98C52.7577 493.993 54.0217 490.743 54.6924 487.199C55.3577 483.679 55.4977 480.017 55.0977 476.219C54.6924 472.417 53.8004 468.733 52.4271 465.133C51.0497 461.541 49.2511 458.228 47.0257 455.2C44.8111 452.187 42.2431 449.661 39.3177 447.641C36.3991 445.629 33.1951 444.276 29.7004 443.613C26.2044 442.944 22.4737 443.212 18.5111 444.423ZM19.0084 507.813C17.2551 494.513 15.9191 483.463 14.9831 474.664C14.0271 465.852 13.3551 458.817 12.9017 453.533C12.4764 448.267 12.2351 444.496 12.2044 442.2C12.1684 439.916 12.2191 438.601 12.3524 438.269C19.2097 435.78 25.6671 435.088 31.7071 436.149C37.7577 437.229 42.9791 439.916 47.3791 444.207C51.7844 448.517 55.1964 454.3 57.6191 461.552C60.0324 468.813 61.0391 477.345 60.6364 487.157C60.8364 490.317 60.1657 493.463 58.6217 496.623C57.0777 499.784 55.0071 502.685 52.4271 505.295C49.8364 507.917 46.9084 510.143 43.6591 511.951C40.4044 513.764 37.1831 514.907 34.0364 515.368C30.8724 515.841 27.9537 515.528 25.2604 514.419C22.5777 513.311 20.4924 511.107 19.0084 507.813" fill="white"/>
<path d="M71.1269 482.825C71.1269 485.239 71.3443 487.819 71.7816 490.585C72.2149 493.338 73.0056 495.891 74.1483 498.242C75.2883 500.585 76.8816 502.553 78.9336 504.094C80.9843 505.633 83.6189 506.41 86.8483 506.41C91.9483 505.873 95.9549 504.51 98.8469 502.322C101.727 500.146 103.667 497.562 104.635 494.555C105.614 491.573 105.774 488.378 105.146 484.987C104.496 481.59 103.226 478.451 101.312 475.563C99.3909 472.667 96.9816 470.223 94.0603 468.206C91.1336 466.186 87.8883 465.05 84.3243 464.778C82.1096 464.849 80.2203 465.322 78.6829 466.186C77.1416 467.074 75.8283 468.283 74.7523 469.866C73.6803 471.451 72.8536 473.338 72.2869 475.511C71.7149 477.686 71.3256 480.138 71.1269 482.825ZM64.3669 481.715C64.3669 478.754 64.8603 475.898 65.8309 473.138C66.8096 470.394 68.1843 467.955 69.9616 465.831C71.7403 463.721 73.8776 462.015 76.3629 460.745C78.8429 459.475 81.6416 458.831 84.7363 458.831C88.1589 458.97 91.3683 459.799 94.3576 461.35C97.3509 462.891 100.006 464.901 102.323 467.349C104.635 469.794 106.556 472.591 108.071 475.709C109.575 478.842 110.598 482.043 111.143 485.343C111.675 488.629 111.636 491.873 111.04 495.069C110.434 498.259 109.171 501.15 107.258 503.733C105.344 506.317 102.688 508.489 99.3029 510.241C95.8989 511.987 91.6883 513.034 86.6469 513.358C82.8829 513.358 79.6083 512.298 76.8216 510.185C74.0349 508.074 71.7149 505.434 69.8629 502.274C68.0109 499.118 66.6349 495.687 65.7283 491.995C64.8229 488.301 64.3669 484.875 64.3669 481.715" fill="white"/>
<path d="M144.91 462.357C143.495 473.719 141.935 482.664 140.221 489.225C138.499 495.775 136.723 500.333 134.882 502.937C133.019 505.517 131.177 506.292 129.334 505.245C127.482 504.213 125.755 501.821 124.141 498.088C122.527 494.367 121.065 489.459 119.758 483.376C118.447 477.292 117.382 470.456 116.577 462.867C116.577 461.992 116.834 461.308 117.339 460.832C117.842 460.373 118.425 460.117 119.098 460.045C119.771 459.979 120.419 460.139 121.065 460.544C121.71 460.948 122.161 461.552 122.427 462.357C123.838 470.488 125.033 477.021 126.002 481.967C126.981 486.899 127.802 490.492 128.477 492.696C129.143 494.921 129.766 495.94 130.339 495.775C130.91 495.605 131.511 494.489 132.158 492.444C132.797 490.4 133.517 487.548 134.319 483.879C135.123 480.216 136.171 476.027 137.442 471.331C138.251 468.705 138.822 466.135 139.161 463.616C139.494 461.099 139.899 458.855 140.367 456.92C140.839 454.967 141.546 453.477 142.49 452.431C143.427 451.391 144.91 451.069 146.919 451.468C148.266 451.873 149.355 452.819 150.194 454.3C151.03 455.779 151.755 457.635 152.362 459.887C152.967 462.141 153.449 464.673 153.829 467.496C154.191 470.317 154.582 473.225 154.986 476.219C155.387 479.204 155.825 482.208 156.299 485.193C156.766 488.185 157.365 490.98 158.109 493.596C159.182 496.428 160.161 497.984 161.034 498.293C161.907 498.597 162.701 498.008 163.397 496.533C164.105 495.047 164.765 492.919 165.369 490.125C165.975 487.341 166.546 484.259 167.075 480.909C167.619 477.544 168.147 474.105 168.693 470.575C169.234 467.045 169.783 463.836 170.354 460.948C170.926 458.052 171.53 455.673 172.17 453.784C172.802 451.907 173.531 450.931 174.335 450.868C175.815 450.868 176.671 451.267 176.906 452.081C177.139 452.891 177.294 453.924 177.355 455.2C177.095 459.232 176.766 463.439 176.409 467.799C176.035 472.165 175.53 476.417 174.889 480.557C174.253 484.68 173.487 488.552 172.578 492.152C171.661 495.737 170.587 498.761 169.351 501.215C168.107 503.663 166.625 505.399 164.915 506.411C163.198 507.415 161.267 507.415 159.117 506.411C157.365 505.189 155.929 503.575 154.786 501.517C153.642 499.463 152.683 497.177 151.913 494.617C151.142 492.06 150.501 489.34 150.001 486.448C149.494 483.557 149.013 480.676 148.583 477.775C148.149 474.893 147.694 472.116 147.226 469.459C146.745 466.812 146.149 464.443 145.406 462.357H144.91Z" fill="white"/>
<path d="M205.376 467.496C204.239 467.496 203.127 467.969 202.058 468.905C200.982 469.857 199.991 471.078 199.076 472.592C198.178 474.105 197.346 475.786 196.615 477.629C195.867 479.48 195.252 481.29 194.75 483.077C194.251 484.856 193.855 486.516 193.591 488.057C193.322 489.609 193.184 490.785 193.184 491.586C193.184 493.198 193.322 494.782 193.591 496.33C193.855 497.88 194.148 499.413 194.447 500.969C194.75 502.512 195.036 504.06 195.304 505.601C195.576 507.142 195.703 508.698 195.703 510.241C195.703 511.448 195.459 512.341 194.958 512.913C194.447 513.473 193.855 513.801 193.184 513.864C192.518 513.928 191.843 513.744 191.172 513.31C190.494 512.877 190.026 512.222 189.752 511.336C188.419 505.169 187.29 499.944 186.38 495.665C185.474 491.398 184.72 487.841 184.115 484.988C183.512 482.132 183.043 479.896 182.704 478.292C182.366 476.669 182.132 475.472 181.995 474.712C181.86 473.938 181.776 473.436 181.747 473.19C181.708 472.954 181.696 472.808 181.696 472.752C181.696 471.597 181.899 470.812 182.296 470.369C182.704 469.933 183.474 469.721 184.612 469.721C185.551 469.721 186.219 470.014 186.584 470.628C186.944 471.232 187.212 471.984 187.394 472.888C187.563 473.798 187.727 474.774 187.887 475.814C188.06 476.857 188.419 477.809 188.951 478.682C189.287 477.346 189.986 475.646 191.066 473.596C192.147 471.545 193.427 469.557 194.894 467.6C196.38 465.653 197.987 463.99 199.743 462.609C201.487 461.234 203.171 460.544 204.782 460.544C208.475 459.736 211.646 460.477 214.31 462.758C216.964 465.05 219.18 468.385 220.956 472.784C222.747 477.196 224.078 482.413 224.991 488.456C225.896 494.514 226.411 500.9 226.536 507.618C226.536 508.832 226.363 509.857 225.999 510.688C225.623 511.528 225.116 512.106 224.486 512.41C223.842 512.702 223.132 512.686 222.367 512.357C221.594 512.02 220.803 511.258 219.986 510.038C219.659 509.704 219.448 508.81 219.338 507.366C219.25 505.922 219.136 504.13 219.034 501.974C218.938 499.818 218.82 497.429 218.686 494.817C218.548 492.193 218.331 489.564 218.035 486.9C217.726 484.248 217.278 481.698 216.671 479.24C216.066 476.792 215.278 474.642 214.31 472.784C213.331 470.949 212.115 469.529 210.67 468.564C209.227 467.582 207.454 467.234 205.376 467.496Z" fill="white"/>
<path fill-rule="evenodd" clip-rule="evenodd" d="M283.605 433.833L284.487 427.919C289.712 428.026 298.272 450.178 299.573 454.97L295.617 454.921L283.747 454.97L283.605 433.833ZM299.869 435.458C293.791 424.293 286.049 411.294 285.432 411.294H280.159V413.278H278.181C278.181 446.407 272.255 477.99 272.255 509.639C272.255 514.321 274.128 510.855 274.225 515.578H280.825L280.463 492.417L282.792 464.761L303.888 463.438C307.864 476.602 319.14 490.394 316.412 508.315C332.203 502.266 321.621 481.946 314.644 462.417C312.015 455.043 305.019 444.911 299.869 435.458" fill="white"/>
<path fill-rule="evenodd" clip-rule="evenodd" d="M379.508 489.843C389.518 485.403 392.18 479.448 392.18 469.366H390.27C393.853 489.979 344.174 503.411 338.193 458.855C336.92 449.399 340.769 438.495 347.212 431.607C353.034 425.384 363.678 418.911 372.748 421.1C381.704 423.258 379.106 436.176 389.633 436.176H391.534C391.872 434.739 392.18 434.704 392.18 432.982C392.18 431.46 389.19 426.368 388.032 424.952C376.486 410.735 362.402 411.294 348.822 422.102C344.372 425.643 336.664 436.556 334.77 441.991C330.445 454.412 333.752 473.554 341.718 484.304C349.804 495.214 368.692 494.628 379.508 489.843Z" fill="white"/>
<path fill-rule="evenodd" clip-rule="evenodd" d="M303.967 344.693V340.961C306.159 325 258.449 330.804 258.449 361.129V394.749L257.285 394.76L256.961 401.464H268.146V357.38C274.951 348.175 283.089 344.212 295.007 348.433H300.979" fill="white"/>
<path d="M170.402 332.314C170.402 332.314 171.796 325.057 173.192 324.59C174.588 324.124 181.696 314.354 181.696 314.354L189.6 320.402C189.6 320.402 184.152 323.66 181.696 326.452C179.24 329.242 172.728 332.314 172.728 332.314H170.402Z" fill="white"/>
</svg>
